<svg width="223" height="445" viewBox="0 0 223 445" fill="none" xmlns="http://www.w3.org/2000/svg">
<path d="M185.598 444.55C180.86 444.566 176.179 443.52 171.898 441.49C167.618 439.459 163.846 436.495 160.862 432.816L7.68702 242.537C3.02259 236.863 0.472656 229.745 0.472656 222.399C0.472656 215.054 3.02259 207.936 7.68702 202.261L166.253 11.9825C171.636 5.50614 179.371 1.4334 187.757 0.660241C196.142 -0.112917 204.492 2.47684 210.968 7.85978C217.445 13.2427 221.517 20.9779 222.291 29.3637C223.064 37.7495 220.474 46.099 215.091 52.5753L73.3332 222.558L210.334 392.54C214.212 397.195 216.675 402.864 217.433 408.875C218.19 414.886 217.209 420.988 214.607 426.46C212.005 431.931 207.89 436.543 202.749 439.749C197.608 442.954 191.656 444.621 185.598 444.55Z"/>
</svg>
