<svg width="443" height="443" viewBox="0 0 443 443" fill="none" xmlns="http://www.w3.org/2000/svg">
<path d="M18.2 256.967C24.387 255.037 31.0853 255.633 36.8349 258.625C42.5845 261.617 46.9191 266.762 48.8937 272.938C60.4941 308.431 83.1095 339.294 113.449 361.037C143.789 382.78 180.271 394.268 217.586 393.83C263.741 394.355 308.22 376.543 341.27 344.3C374.32 312.057 393.243 268.014 393.89 221.829C393.243 175.645 374.32 131.602 341.27 99.3589C308.22 67.1156 263.741 49.3035 217.586 49.8284C175.902 49.7277 135.501 64.2472 103.406 90.863L156.69 82.0172C159.883 81.4914 163.149 81.6025 166.299 82.3441C169.45 83.0857 172.423 84.4432 175.047 86.3385C177.671 88.2338 179.895 90.6296 181.591 93.388C183.287 96.1464 184.421 99.2131 184.928 102.412C185.453 105.607 185.342 108.875 184.601 112.028C183.86 115.18 182.504 118.155 180.61 120.781C178.715 123.407 176.321 125.633 173.565 127.33C170.808 129.026 167.744 130.161 164.547 130.669L60.4345 147.869H56.2602C53.4129 147.866 50.5879 147.367 47.9115 146.395C47.012 146.053 46.1805 145.554 45.456 144.92C43.6954 144.265 42.0407 143.355 40.545 142.218L38.3351 139.515C38.3351 138.286 36.1251 137.303 35.1429 135.829C34.1607 134.355 35.1429 133.372 33.9152 132.389C33.2367 130.958 32.6622 129.48 32.1963 127.966L13.7802 29.6797C13.1675 26.453 13.1959 23.137 13.8639 19.9212C14.5319 16.7055 15.8262 13.6528 17.6731 10.9376C19.5201 8.22243 21.8833 5.89784 24.628 4.09658C27.3727 2.29532 30.445 1.05267 33.6696 0.439585C36.8942 -0.173504 40.2079 -0.145028 43.4215 0.523388C46.6351 1.19181 49.6857 2.48707 52.399 4.33523C57.8789 8.06776 61.6526 13.8258 62.89 20.3426L69.5198 55.9713C110.625 20.3239 163.192 0.695885 217.586 0.685301C276.765 0.161122 333.735 23.151 375.994 64.6102C418.254 106.069 442.352 162.612 443 221.829C442.352 281.047 418.254 337.589 375.994 379.049C333.735 420.508 276.765 443.498 217.586 442.974C169.627 443.711 122.698 429.02 83.7093 401.063C44.7206 373.107 15.732 333.362 1.01161 287.681C0.0801834 284.535 -0.212203 281.235 0.151739 277.974C0.51568 274.713 1.52856 271.558 3.13062 268.695C4.73267 265.833 6.89144 263.32 9.4796 261.306C12.0678 259.291 15.0329 257.816 18.2 256.967Z"/>
</svg>
